<svg width="100" height="100" viewBox="0 0 100 100" fill="none" xmlns="http://www.w3.org/2000/svg">
<g clip-path="url(#clip0)">
<rect width="100" height="100" fill="#8C5D02"/>
<path d="M15 92.5C6.59999 80.9 7.49999 71.6667 8.99999 68.5C13 63.3333 19.8 51.8 15 47C8.99999 41 6.00001 38.5 7.5 29.5C8.99999 20.5 1.49999 6 8.99999 8C16.5 10 49.5 39.5 35.5 54C21.5 68.5 4.49999 84.5 26.5 84C48.5 83.5 26 104 48.5 94C71 84 88.5 106.5 91 92.5C93.5 78.5 102.5 73 71 77C39.5 81 35.5 103 52.5 78.5C69.5 54 27.5 45 57 51C86.5 57 87 69.5 89 49.5C91 29.5 104.5 18.5 91 17.5C80.2 16.7 87.5 10.8333 92.5 8C85.3333 5.33333 70.2 2.1 67 10.5C63 21 51 27.5 50.5 19C50 10.5 57.5 1.5 43.5 5.5C29.5 9.5 28 3.00001 21.5 5.5C15 8 7.49999 9.5 10.5 15C13.5 20.5 -0.545998 43.5 5.49999 43.5C11.546 43.5 -7.50001 98.5 15 92.5Z" stroke="#6C4202" stroke-width="5"/>
<circle cx="66.5" cy="65.5" r="31.5" fill="#AC750B"/>
<rect y="58.9439" width="50" height="50" transform="rotate(-39.7081 0 58.9439)" fill="#785002"/>
<path d="M56.0399 5.09976L92.8747 33.9129L49.5044 51.4062L56.0399 5.09976Z" fill="#9B6702"/>
<path d="M59 31C62 25.5 63 29 59 16.5V9.5C59.5 10.8333 60.7 13.8 61.5 15C62.5 16.5 64 19.5 67 21.5C70 23.5 69.5 28 67 31C64.5 34 67 27 65 26.5C63 26 63.5 31 64 33C64.5 35 67 36 73 33C79 30 71.5 29 73 25C74.5 21 77.5 31 84.5 33C91.5 35 79 33.5 75.5 38C72 42.5 69 38 61.5 43C54 48 63 36 60.5 36C58 36 59 42 55 42.5C51 43 56 36.5 59 31Z" stroke="#4B2D00" stroke-width="2"/>
<circle cx="28.5" cy="28.5" r="18.5" fill="#AF7400"/>
<path d="M12.5 19.5C17.8573 11.5452 30.8049 1.15522 44.4115 19.4745C45.2761 20.373 45.656 21 45.5 21C45.1368 20.4707 44.7739 19.9624 44.4115 19.4745C40.8409 15.764 29.0037 7.42415 12.5 19.5Z" fill="#196200"/>
<path d="M12.5 19.5C18 11.3333 31.5 0.6 45.5 21C46.3 21 33 4.5 12.5 19.5Z" stroke="#196200"/>
<path d="M92.5 37.5C90 30.5 91.5 33.5 56.5 5.5C67 10.8333 88.5 22.2 90.5 25C93 28.5 95 29.5 94.5 37.5C94 45.5 92.5 43.5 92.5 37.5Z" fill="#196200" stroke="#196200"/>
<path d="M35.5 75C21.5 85.5 35 79 13.5 63C27.5 59 17.5 57 17.5 55C17.5 53.4 35.8333 61.6667 45 66L37.5 68.5C38.6667 72.1667 42.2 78.6 47 75C53 70.5 66 66.5 56.5 61.5C47 56.5 31.5 59 37.5 53C43.5 47 49 46.5 45 41.5" stroke="#413300" stroke-width="3"/>
<path d="M63 80C61 91.5 67 101 76 91.5C85 82 55.5 95 71.5 80C87.5 65 80.5 106.5 87.5 75C94.5 43.5 84 76.5 82.5 69C81 61.5 98.5 53.5 85 55C71.5 56.5 74.5 82 73 64.5C71.5 47 68 46 78.5 46.5C89 47 84 55.5 78.5 52.5" stroke="#7C4B01" stroke-width="3"/>
<path d="M17.5 27C15.5 35.5 16.5 43 24 40.5C31.5 38 12 36 21 33.5C30 31 22.5 30 24 27C25.5 24 26.5 22.5 30 28C33.5 33.5 27 30 27.5 33.5C28 37 25 40.5 30 40.5C35 40.5 34 35.5 37 35.5C40 35.5 36.5 47 42 37.5C47.5 28 44 31 42 25C40 19 37 18 37 23C37 28 45.5 32.5 40.5 32C35.5 31.5 35.5 23 27.5 23C19.5 23 26 15 15.5 21" stroke="#593600" stroke-width="2"/>
<path d="M70 65L57 49L65 45.5C67.6667 49.6667 73.6 59.4 76 65C79 72 68 76 70 73C71.6 70.6 70.6667 66.6667 70 65Z" fill="#196200" stroke="#196200"/>
<path d="M0.999999 58L17.5 44C17.5 43.1667 16 43.5 15 41.5C13.882 39.2639 5 49 2.5 53C0.499999 56.2 0.666666 57.6667 0.999999 58Z" fill="#196200" stroke="#196200"/>
</g>
<defs>
<clipPath id="clip0">
<rect width="100" height="100" fill="white"/>
</clipPath>
</defs>
</svg>
