<svg width="100" height="100" viewBox="0 0 100 100" fill="none" xmlns="http://www.w3.org/2000/svg">
<g clip-path="url(#clip0)">
<path d="M14 85C14 76.6 22.6667 71.1667 27 69.5L34.5 81C28.1 77.8 18.1667 82.3333 14 85Z" fill="#1A91C3" stroke="#1A91C3"/>
<path d="M94 85C90 80.2 79 80.3333 74 81L82 69.5C93.6 73.9 94.8333 81.6667 94 85Z" fill="#1A91C3" stroke="#1A91C3"/>
<path d="M54.5 12L62 32H47.5L54.5 12Z" fill="#1A91C3" stroke="#1A91C3"/>
<path d="M26 38C28 39.6 32.8333 38.6667 35 38L26 49.5C26 45.5 24.6667 43.5 24 43C14 47 7.16667 44.6667 5 43C15.8 38.2 22.1667 24.3333 24 18C29.6 25.2 27.6667 34.3333 26 38Z" fill="#1A91C3" stroke="#1A91C3"/>
<ellipse cx="54.5" cy="60" rx="30.5" ry="28.5" fill="#1185B7"/>
<path d="M54 85.5C36.8 84.7 29.8333 72.5 28.5 66.5C35.7 67.3 44.1667 65.5 47.5 64.5C50.1667 63 57 60.9 63 64.5C69 68.1 77.5 67.3333 81 66.5C79.1667 73.1667 71.2 86.3 54 85.5Z" fill="#2BA0D2" stroke="#2BA0D2"/>
<path d="M75 68.5C61.06 72.472 41.8583 70.155 34 68.5C35.025 72.6375 39.6006 82.5 54 82.5C69 82.5 74.3167 73.6305 75 68.5Z" fill="black" stroke="#004381"/>
<path d="M36.5 71.5L35.5 69.5C52 73 68 71.5 73.5 70L72.5 72L71 71L69.5 74L66.5 71.5L63.5 75.5L61 72L57.5 76.5L54.5 72L51.5 77L48.5 72L46 75.5L43 71.5L40.5 74.5L37.5 70.5L36.5 71.5Z" fill="white" stroke="white"/>
<path d="M43.5 77L42 78.5C51 84.5 64.985 80.8333 67.5 78.5L66 77L63.5 79L60.5 77L57.5 80.5L54.5 77L51.5 80L48 77L45.5 79.5L43.5 77Z" fill="white" stroke="white" stroke-width="0.5"/>
<ellipse cx="58.616" cy="66.299" rx="1" ry="1.5" transform="rotate(-30 58.616 66.299)" fill="#006AA6"/>
<ellipse cx="51.616" cy="66.299" rx="1" ry="1.5" transform="rotate(30 51.616 66.299)" fill="#006AA6"/>
<path d="M42 52.5L46.6503 59.5C45.6503 61.1667 40.5 63.5 39 59C37.5 54.5 38.5 50.5 42 52.5Z" fill="white" stroke="white"/>
<ellipse cx="42.5" cy="58" rx="2.5" ry="3.5" fill="black"/>
<path d="M68.6503 52.0289L64 59.0289C65 60.6956 70.1503 63.0289 71.6503 58.5289C73.1503 54.0289 72.1503 50.0289 68.6503 52.0289Z" fill="white" stroke="white"/>
<ellipse rx="2.5" ry="3.5" transform="matrix(-1 0 0 1 68.1503 57.5289)" fill="black"/>
</g>
<defs>
<clipPath id="clip0">
<rect width="100" height="100" fill="white"/>
</clipPath>
</defs>
</svg>
