<svg width="100" height="100" viewBox="0 0 100 100" fill="none" xmlns="http://www.w3.org/2000/svg">
<rect width="100" height="100" fill="#D6FFFF"/>
<path d="M50.412 18.2219C40.3862 19.4915 37.2532 21.0787 44.1459 22.6658C50.412 24.8877 36.7519 26.0304 36 29.3316C36 32.6328 43.5193 32.1884 47.2789 31.5536C46.1301 31.1304 49.4094 30.5378 71.7166 31.5536C94.0238 32.5693 91.1414 26.7923 82.9955 24.2529C81.0112 22.8774 70.4634 24.2529 77.0427 21.0787C82.5351 18.4289 71.09 16.6347 64.1973 15.6825C49.6468 13.6722 63.3426 16.5843 50.412 18.2219Z" fill="#E4F0EF" stroke="#E4F0EF"/>
<path d="M19.8421 48.8935C21.6239 50.3811 41.2652 50.1332 49.1132 49.5134C51.0222 48.6869 53.4402 47.7779 52.9311 45.7945C52.2948 43.3152 50.453 43.0053 48.1587 43.0053C45.6134 43.0053 46.886 44.5548 44.3407 42.0755C40.914 38.7377 38.932 41.4557 35.7503 40.2161C33.205 39.2244 31.8263 41.8689 30.6597 43.6251C29.7052 43.3152 26.6508 43.4391 23.3419 45.1746C20.1603 44.8647 17.615 47.0341 19.8421 48.8935Z" fill="#E4F0EF" stroke="#E4F0EF"/>
</svg>
