<svg width="100" height="100" viewBox="0 0 100 100" fill="none" xmlns="http://www.w3.org/2000/svg">
<path d="M4 28C15.4333 27.7778 42.64 23.0667 60 6C46.4667 7.55556 16.32 14.1333 4 28Z" fill="#E9C238" stroke="#A78200"/>
<path d="M48.5 92.5543L4 29.5428C17.2109 29.0812 46.8312 23.7263 59.625 6L93 71.7813C81.3187 92.2773 58.4661 94.17 48.5 92.5543Z" fill="#A78200" stroke="#A78200"/>
<path d="M29 52C29.8571 56.7826 32.8571 66.4783 38 67" stroke="black"/>
<path d="M62.6407 79C64.1078 75.3509 65.6336 67.6421 60 66" stroke="black"/>
<path d="M71.6084 27.4242C69.8102 25.5657 68.012 19.4788 75.2048 10L78.2018 13.4848C76.2038 14.8788 72.8072 17.9455 75.2048 19.0606H80V22.5455C78.4016 22.0808 75.2048 21.4303 75.2048 22.5455C75.2048 23.6068 72.4248 26.6885 72.4212 29.9445L73.4066 33C72.6915 32.0022 72.42 30.9648 72.4212 29.9445L71.6084 27.4242Z" fill="#A78200"/>
<path d="M71.6084 27.4242C69.8102 25.5657 68.012 19.4788 75.2048 10L78.2018 13.4848C76.2038 14.8788 72.8072 17.9455 75.2048 19.0606H80V22.5455C78.4016 22.0808 75.2048 21.4303 75.2048 22.5455C75.2048 23.9394 70.4096 28.8182 73.4066 33L71.6084 27.4242Z" stroke="#A78200"/>
<path d="M21.1176 86C29.0235 80.9 39 83.875 43 86C42.0588 84.3472 40.4588 79.9083 35.9412 75.375C31.4235 70.8417 22.2941 69.2361 19 69V72.5417C24.6471 71.975 28.8824 76.5556 30.2941 78.9167C23.5176 78.35 19.9412 81.5139 19 83.1667L21.1176 86Z" fill="#A78200" stroke="#A78200"/>
<path d="M74.3077 52.7828C87.0462 86.5769 62.0769 93.1788 48 92.2555C75.1385 96.6875 89.3077 80.2521 93 71.4804L59.7692 5C59.3077 6.84668 61.5692 18.9886 74.3077 52.7828Z" fill="black" fill-opacity="0.1" stroke="black" stroke-opacity="0.05"/>
<path d="M23 82C27.0909 81.2454 35.8182 80.1889 38 82" stroke="black"/>
<path d="M25 72C27.2222 72.4444 31.9333 73.8667 33 76" stroke="black"/>
<path d="M72 23C72.2333 19.3333 73.26 12 75.5 12M75.5 20.0667H79" stroke="black"/>
<path d="M15 34C16.4583 38.4333 20.5 47.44 25 48" stroke="black"/>
<path d="M29 30C31.7429 32.9959 37.0914 40.5086 36.5429 46.5926M46.8286 38.9877C43.6286 46.1317 39.1486 60.558 46.8286 61.1111C54.5086 61.6642 52.3143 55.8107 50.2571 52.8148M53 86C53 83.465 51.3543 77.5654 44.7714 74.2469" stroke="black"/>
<path d="M54.8289 71C57.0481 60.6779 59.4893 41.1596 51.5 45.6638C43.5107 50.168 45.9519 55.0476 48.1711 56.9243" stroke="black"/>
<path d="M78 82C75.5926 79.6344 69.6222 71.9226 65 60" stroke="black"/>
<path d="M45 25.1022C47.7733 24.4398 54.856 26.692 61 41" stroke="black"/>
<path d="M77 67C74.4615 63.6667 69.1077 55 68 47" stroke="black"/>
<path d="M86.7982 75C88.4893 72.9545 89.6973 67.0909 81 60" stroke="black"/>
<path d="M79 52L66.6897 29.2896C63.7931 20.7732 58 6.29532 58 16.515C58 29.2896 63.069 34.9672 61.6207 29.2896C60.4621 24.7475 61.1379 21.7195 61.6207 20.7732" stroke="black"/>
<path d="M11 26C17.386 21.52 34.1263 12.048 50 10C47.9474 13.84 41.1053 18.32 17.1579 25.36M44.5263 12.56C40.4211 12.9867 29.6105 15.632 19.2105 22.8C23.5439 21.52 33.9895 18.192 41.1053 15.12" stroke="black" stroke-width="0.5"/>
</svg>
